<svg xmlns="http://www.w3.org/2000/svg" fill="none" viewBox="0 0 32 32" id="Pool-8-Ball--Streamline-Emojitwo-Black" height="32" width="32">
  <desc>
    Pool 8 Ball Streamline Emoji: https://streamlinehq.com
  </desc>
  <g>
    <path fill="#000000" d="M16 1C7.716 1 1 7.716 1 16c0 8.284 6.716 15 15 15 8.284 0 15 -6.716 15 -15C31 7.716 24.284 1 16 1Zm6.551 16.4765c-2.797 2.3135 -7.042 1.796 -9.4825 -1.1545 -2.4405 -2.951 -2.1515 -7.218 0.6455 -9.5315 2.797 -2.3125 7.042 -1.796 9.4825 1.1555 2.4405 2.9515 2.151 7.218 -0.6455 9.5305Z" stroke-width="0.5"></path>
    <path fill="#000000" d="M20.1045 10.369c0.371 -0.7285 0.366 -1.537 -0.118 -2.3155 -0.84 -1.3505 -2.5275 -1.6125 -4.085 -0.6425 -1.5715 0.9765 -2.082 2.6045 -1.242 3.956 0.4835 0.7775 1.207 1.1395 2.036 1.122 -0.5545 0.909 -0.576 1.9015 -0.0105 2.8105 0.8925 1.4345 2.657 1.747 4.497 0.6035 1.84 -1.1445 2.34 -2.865 1.4475 -4.301 -0.566 -0.9075 -1.4645 -1.3275 -2.525 -1.233Zm-4.081 0.266c-0.4465 -0.718 -0.2315 -1.5975 0.576 -2.0995 0.797 -0.495 1.699 -0.294 2.1375 0.411 0.4395 0.706 0.2285 1.617 -0.5675 2.1125 -0.807 0.5025 -1.699 0.2935 -2.146 -0.424Zm4.407 4.0605c-0.8855 0.551 -1.875 0.337 -2.3585 -0.4415 -0.469 -0.753 -0.201 -1.699 0.6845 -2.25 0.8865 -0.551 1.8595 -0.3605 2.3205 0.381 0.4765 0.7655 0.2395 1.7585 -0.6465 2.3105Z" stroke-width="0.5"></path>
  </g>
</svg>